<?xml version="1.0"?><svg data-name="Layer 1" id="Layer_1" viewBox="0 0 512 512" xmlns="http://www.w3.org/2000/svg"><title/><path d="M437.28,99a6,6,0,0,0-.7-1.38c-.44-.65-10.89-15.78-26.81-16.34-9.83-.32-18.41,4.59-26.55,14.21L61,180.36c-.11,0-.16.14-.27.17a6.3,6.3,0,0,0-2.86,1.84c-.14.15-.21.33-.34.5a6.23,6.23,0,0,0-1.15,2.9c0,.14-.14.23-.15.37s0,.11,0,.16,0,.17,0,.27V310A6.4,6.4,0,0,0,60,315.81L309.26,428.39a25.15,25.15,0,0,0,11.34,2.3c17.17,0,52.63-12.5,102.57-93.14C425.71,333.15,485,228.35,437.28,99Zm-53.67,9.66c55,94.69,12,182.4.39,202.85L82.76,187.9ZM331.24,369.16h0c-1.26.94-5,.58-10.15-2.36-6.32-3.6-13.2-10.12-18.89-17.89-12.26-16.77-13.77-31.43-10.51-33.82a3.32,3.32,0,0,1,2-.51c5.1,0,16.55,6.37,27.08,20.77,5.69,7.77,9.82,16.3,11.33,23.42C333.31,364.58,332.51,368.23,331.24,369.16Zm13.84-9.27a37.48,37.48,0,0,0-.45-3.79c-1.9-9-6.72-19-13.54-28.33-13.57-18.59-34.08-32.47-47-23s-5.86,33.17,7.72,51.76c6.39,8.73,13.93,15.86,21.39,20.47a32,32,0,0,1-10.89-2.75L154.67,307.05a14.15,14.15,0,0,0,2.24-1.11h0c12-8.77,8.29-32.81-8.61-55.92-7.43-10.16-16.28-18.47-24.94-23.4-10.2-5.81-19.35-6.44-25.75-1.75-12,8.77-8.29,32.81,8.61,55.93,1.72,2.35,3.5,4.56,5.31,6.65L69,268.11v-72l154,63.23c-24.56,1.87-42.3,12.23-42.3,25.67,0,14.87,21.59,26.07,50.22,26.07s50.22-11.2,50.22-26.07a14.22,14.22,0,0,0-.35-2l95.31,39.12ZM116.59,273.2c-13.26-18.13-15.64-34.87-11.38-38a4.28,4.28,0,0,1,2.48-.62c2.09,0,5.22.83,9.33,3.18,7,4,14.64,11.21,20.92,19.82,13.28,18.13,15.65,34.87,11.4,38S129.86,291.34,116.59,273.2ZM268.38,285c0,5.27-14.91,13.24-37.39,13.24s-37.38-8-37.38-13.24,14.91-13.23,37.38-13.23S268.38,279.78,268.38,285ZM412.16,331c-61.94,100-96.88,86.06-97.31,85.88L69,305.82V282.21L297,385.89a45.14,45.14,0,0,0,53.43-12.34l41.15-49.88c.08-.1.09-.22.17-.32s.16-.11.22-.2c.7-1.06,69.32-106.26,2.52-221.06,5-5.34,9.93-8.14,14.75-8,8.12.25,14.64,8,16.28,10.18C470.55,227.42,412.65,330.1,412.16,331Z"/><path d="M282.57,160.34H255.92a6.42,6.42,0,1,0,0,12.83h26.65a6.42,6.42,0,1,0,0-12.83Z"/><path d="M276.56,212.58l-24.47-7a6.41,6.41,0,1,0-3.54,12.33l24.48,7a6.41,6.41,0,1,0,3.53-12.33Z"/></svg>